# encapsulated-spheres scene

o SphereOuter
v 0.000000 0.900000 0.000000
v 0.175581 0.882707 0.000000
v 0.162216 0.882707 0.067192
v 0.124155 0.882707 0.124155
v 0.067192 0.882707 0.162216
v 0.000000 0.882707 0.175581
v -0.067192 0.882707 0.162216
v -0.124155 0.882707 0.124155
v -0.162216 0.882707 0.067192
v -0.175581 0.882707 0.000000
v -0.162216 0.882707 -0.067192
v -0.124155 0.882707 -0.124155
v -0.067192 0.882707 -0.162216
v -0.000000 0.882707 -0.175581
v 0.067192 0.882707 -0.162216
v 0.124155 0.882707 -0.124155
v 0.162216 0.882707 -0.067192
v 0.344415 0.831492 0.000000
v 0.318198 0.831492 0.131802
v 0.243538 0.831492 0.243538
v 0.131802 0.831492 0.318198
v 0.000000 0.831492 0.344415
v -0.131802 0.831492 0.318198
v -0.243538 0.831492 0.243538
v -0.318198 0.831492 0.131802
v -0.344415 0.831492 0.000000
v -0.318198 0.831492 -0.131802
v -0.243538 0.831492 -0.243538
v -0.131802 0.831492 -0.318198
v -0.000000 0.831492 -0.344415
v 0.131802 0.831492 -0.318198
v 0.243538 0.831492 -0.243538
v 0.318198 0.831492 -0.131802
v 0.500013 0.748323 0.000000
v 0.461952 0.748323 0.191347
v 0.353563 0.748323 0.353563
v 0.191347 0.748323 0.461952
v 0.000000 0.748323 0.500013
v -0.191347 0.748323 0.461952
v -0.353563 0.748323 0.353563
v -0.461952 0.748323 0.191347
v -0.500013 0.748323 0.000000
v -0.461952 0.748323 -0.191347
v -0.353563 0.748323 -0.353563
v -0.191347 0.748323 -0.461952
v -0.000000 0.748323 -0.500013
v 0.191347 0.748323 -0.461952
v 0.353563 0.748323 -0.353563
v 0.461952 0.748323 -0.191347
v 0.636396 0.636396 0.000000
v 0.587953 0.636396 0.243538
v 0.450000 0.636396 0.450000
v 0.243538 0.636396 0.587953
v 0.000000 0.636396 0.636396
v -0.243538 0.636396 0.587953
v -0.450000 0.636396 0.450000
v -0.587953 0.636396 0.243538
v -0.636396 0.636396 0.000000
v -0.587953 0.636396 -0.243538
v -0.450000 0.636396 -0.450000
v -0.243538 0.636396 -0.587953
v -0.000000 0.636396 -0.636396
v 0.243538 0.636396 -0.587953
v 0.450000 0.636396 -0.450000
v 0.587953 0.636396 -0.243538
v 0.748323 0.500013 0.000000
v 0.691360 0.500013 0.286371
v 0.529144 0.500013 0.529144
v 0.286371 0.500013 0.691360
v 0.000000 0.500013 0.748323
v -0.286371 0.500013 0.691360
v -0.529144 0.500013 0.529144
v -0.691360 0.500013 0.286371
v -0.748323 0.500013 0.000000
v -0.691360 0.500013 -0.286371
v -0.529144 0.500013 -0.529144
v -0.286371 0.500013 -0.691360
v -0.000000 0.500013 -0.748323
v 0.286371 0.500013 -0.691360
v 0.529144 0.500013 -0.529144
v 0.691360 0.500013 -0.286371
v 0.831492 0.344415 0.000000
v 0.768198 0.344415 0.318198
v 0.587953 0.344415 0.587953
v 0.318198 0.344415 0.768198
v 0.000000 0.344415 0.831492
v -0.318198 0.344415 0.768198
v -0.587953 0.344415 0.587953
v -0.768198 0.344415 0.318198
v -0.831492 0.344415 0.000000
v -0.768198 0.344415 -0.318198
v -0.587953 0.344415 -0.587953
v -0.318198 0.344415 -0.768198
v -0.000000 0.344415 -0.831492
v 0.318198 0.344415 -0.768198
v 0.587953 0.344415 -0.587953
v 0.768198 0.344415 -0.318198
v 0.882707 0.175581 0.000000
v 0.815515 0.175581 0.337797
v 0.624168 0.175581 0.624168
v 0.337797 0.175581 0.815515
v 0.000000 0.175581 0.882707
v -0.337797 0.175581 0.815515
v -0.624168 0.175581 0.624168
v -0.815515 0.175581 0.337797
v -0.882707 0.175581 0.000000
v -0.815515 0.175581 -0.337797
v -0.624168 0.175581 -0.624168
v -0.337797 0.175581 -0.815515
v -0.000000 0.175581 -0.882707
v 0.337797 0.175581 -0.815515
v 0.624168 0.175581 -0.624168
v 0.815515 0.175581 -0.337797
v 0.900000 0.000000 0.000000
v 0.831492 0.000000 0.344415
v 0.636396 0.000000 0.636396
v 0.344415 0.000000 0.831492
v 0.000000 0.000000 0.900000
v -0.344415 0.000000 0.831492
v -0.636396 0.000000 0.636396
v -0.831492 0.000000 0.344415
v -0.900000 0.000000 0.000000
v -0.831492 0.000000 -0.344415
v -0.636396 0.000000 -0.636396
v -0.344415 0.000000 -0.831492
v -0.000000 0.000000 -0.900000
v 0.344415 0.000000 -0.831492
v 0.636396 0.000000 -0.636396
v 0.831492 0.000000 -0.344415
v 0.882707 -0.175581 0.000000
v 0.815515 -0.175581 0.337797
v 0.624168 -0.175581 0.624168
v 0.337797 -0.175581 0.815515
v 0.000000 -0.175581 0.882707
v -0.337797 -0.175581 0.815515
v -0.624168 -0.175581 0.624168
v -0.815515 -0.175581 0.337797
v -0.882707 -0.175581 0.000000
v -0.815515 -0.175581 -0.337797
v -0.624168 -0.175581 -0.624168
v -0.337797 -0.175581 -0.815515
v -0.000000 -0.175581 -0.882707
v 0.337797 -0.175581 -0.815515
v 0.624168 -0.175581 -0.624168
v 0.815515 -0.175581 -0.337797
v 0.831492 -0.344415 0.000000
v 0.768198 -0.344415 0.318198
v 0.587953 -0.344415 0.587953
v 0.318198 -0.344415 0.768198
v 0.000000 -0.344415 0.831492
v -0.318198 -0.344415 0.768198
v -0.587953 -0.344415 0.587953
v -0.768198 -0.344415 0.318198
v -0.831492 -0.344415 0.000000
v -0.768198 -0.344415 -0.318198
v -0.587953 -0.344415 -0.587953
v -0.318198 -0.344415 -0.768198
v -0.000000 -0.344415 -0.831492
v 0.318198 -0.344415 -0.768198
v 0.587953 -0.344415 -0.587953
v 0.768198 -0.344415 -0.318198
v 0.748323 -0.500013 0.000000
v 0.691360 -0.500013 0.286371
v 0.529144 -0.500013 0.529144
v 0.286371 -0.500013 0.691360
v 0.000000 -0.500013 0.748323
v -0.286371 -0.500013 0.691360
v -0.529144 -0.500013 0.529144
v -0.691360 -0.500013 0.286371
v -0.748323 -0.500013 0.000000
v -0.691360 -0.500013 -0.286371
v -0.529144 -0.500013 -0.529144
v -0.286371 -0.500013 -0.691360
v -0.000000 -0.500013 -0.748323
v 0.286371 -0.500013 -0.691360
v 0.529144 -0.500013 -0.529144
v 0.691360 -0.500013 -0.286371
v 0.636396 -0.636396 0.000000
v 0.587953 -0.636396 0.243538
v 0.450000 -0.636396 0.450000
v 0.243538 -0.636396 0.587953
v 0.000000 -0.636396 0.636396
v -0.243538 -0.636396 0.587953
v -0.450000 -0.636396 0.450000
v -0.587953 -0.636396 0.243538
v -0.636396 -0.636396 0.000000
v -0.587953 -0.636396 -0.243538
v -0.450000 -0.636396 -0.450000
v -0.243538 -0.636396 -0.587953
v -0.000000 -0.636396 -0.636396
v 0.243538 -0.636396 -0.587953
v 0.450000 -0.636396 -0.450000
v 0.587953 -0.636396 -0.243538
v 0.500013 -0.748323 0.000000
v 0.461952 -0.748323 0.191347
v 0.353563 -0.748323 0.353563
v 0.191347 -0.748323 0.461952
v 0.000000 -0.748323 0.500013
v -0.191347 -0.748323 0.461952
v -0.353563 -0.748323 0.353563
v -0.461952 -0.748323 0.191347
v -0.500013 -0.748323 0.000000
v -0.461952 -0.748323 -0.191347
v -0.353563 -0.748323 -0.353563
v -0.191347 -0.748323 -0.461952
v -0.000000 -0.748323 -0.500013
v 0.191347 -0.748323 -0.461952
v 0.353563 -0.748323 -0.353563
v 0.461952 -0.748323 -0.191347
v 0.344415 -0.831492 0.000000
v 0.318198 -0.831492 0.131802
v 0.243538 -0.831492 0.243538
v 0.131802 -0.831492 0.318198
v 0.000000 -0.831492 0.344415
v -0.131802 -0.831492 0.318198
v -0.243538 -0.831492 0.243538
v -0.318198 -0.831492 0.131802
v -0.344415 -0.831492 0.000000
v -0.318198 -0.831492 -0.131802
v -0.243538 -0.831492 -0.243538
v -0.131802 -0.831492 -0.318198
v -0.000000 -0.831492 -0.344415
v 0.131802 -0.831492 -0.318198
v 0.243538 -0.831492 -0.243538
v 0.318198 -0.831492 -0.131802
v 0.175581 -0.882707 0.000000
v 0.162216 -0.882707 0.067192
v 0.124155 -0.882707 0.124155
v 0.067192 -0.882707 0.162216
v 0.000000 -0.882707 0.175581
v -0.067192 -0.882707 0.162216
v -0.124155 -0.882707 0.124155
v -0.162216 -0.882707 0.067192
v -0.175581 -0.882707 0.000000
v -0.162216 -0.882707 -0.067192
v -0.124155 -0.882707 -0.124155
v -0.067192 -0.882707 -0.162216
v -0.000000 -0.882707 -0.175581
v 0.067192 -0.882707 -0.162216
v 0.124155 -0.882707 -0.124155
v 0.162216 -0.882707 -0.067192
v 0.000000 -0.900000 0.000000
f 1 3 2
f 1 4 3
f 1 5 4
f 1 6 5
f 1 7 6
f 1 8 7
f 1 9 8
f 1 10 9
f 1 11 10
f 1 12 11
f 1 13 12
f 1 14 13
f 1 15 14
f 1 16 15
f 1 17 16
f 1 2 17
f 2 3 19
f 2 19 18
f 3 4 20
f 3 20 19
f 4 5 21
f 4 21 20
f 5 6 22
f 5 22 21
f 6 7 23
f 6 23 22
f 7 8 24
f 7 24 23
f 8 9 25
f 8 25 24
f 9 10 26
f 9 26 25
f 10 11 27
f 10 27 26
f 11 12 28
f 11 28 27
f 12 13 29
f 12 29 28
f 13 14 30
f 13 30 29
f 14 15 31
f 14 31 30
f 15 16 32
f 15 32 31
f 16 17 33
f 16 33 32
f 17 2 18
f 17 18 33
f 18 19 35
f 18 35 34
f 19 20 36
f 19 36 35
f 20 21 37
f 20 37 36
f 21 22 38
f 21 38 37
f 22 23 39
f 22 39 38
f 23 24 40
f 23 40 39
f 24 25 41
f 24 41 40
f 25 26 42
f 25 42 41
f 26 27 43
f 26 43 42
f 27 28 44
f 27 44 43
f 28 29 45
f 28 45 44
f 29 30 46
f 29 46 45
f 30 31 47
f 30 47 46
f 31 32 48
f 31 48 47
f 32 33 49
f 32 49 48
f 33 18 34
f 33 34 49
f 34 35 51
f 34 51 50
f 35 36 52
f 35 52 51
f 36 37 53
f 36 53 52
f 37 38 54
f 37 54 53
f 38 39 55
f 38 55 54
f 39 40 56
f 39 56 55
f 40 41 57
f 40 57 56
f 41 42 58
f 41 58 57
f 42 43 59
f 42 59 58
f 43 44 60
f 43 60 59
f 44 45 61
f 44 61 60
f 45 46 62
f 45 62 61
f 46 47 63
f 46 63 62
f 47 48 64
f 47 64 63
f 48 49 65
f 48 65 64
f 49 34 50
f 49 50 65
f 50 51 67
f 50 67 66
f 51 52 68
f 51 68 67
f 52 53 69
f 52 69 68
f 53 54 70
f 53 70 69
f 54 55 71
f 54 71 70
f 55 56 72
f 55 72 71
f 56 57 73
f 56 73 72
f 57 58 74
f 57 74 73
f 58 59 75
f 58 75 74
f 59 60 76
f 59 76 75
f 60 61 77
f 60 77 76
f 61 62 78
f 61 78 77
f 62 63 79
f 62 79 78
f 63 64 80
f 63 80 79
f 64 65 81
f 64 81 80
f 65 50 66
f 65 66 81
f 66 67 83
f 66 83 82
f 67 68 84
f 67 84 83
f 68 69 85
f 68 85 84
f 69 70 86
f 69 86 85
f 70 71 87
f 70 87 86
f 71 72 88
f 71 88 87
f 72 73 89
f 72 89 88
f 73 74 90
f 73 90 89
f 74 75 91
f 74 91 90
f 75 76 92
f 75 92 91
f 76 77 93
f 76 93 92
f 77 78 94
f 77 94 93
f 78 79 95
f 78 95 94
f 79 80 96
f 79 96 95
f 80 81 97
f 80 97 96
f 81 66 82
f 81 82 97
f 82 83 99
f 82 99 98
f 83 84 100
f 83 100 99
f 84 85 101
f 84 101 100
f 85 86 102
f 85 102 101
f 86 87 103
f 86 103 102
f 87 88 104
f 87 104 103
f 88 89 105
f 88 105 104
f 89 90 106
f 89 106 105
f 90 91 107
f 90 107 106
f 91 92 108
f 91 108 107
f 92 93 109
f 92 109 108
f 93 94 110
f 93 110 109
f 94 95 111
f 94 111 110
f 95 96 112
f 95 112 111
f 96 97 113
f 96 113 112
f 97 82 98
f 97 98 113
f 98 99 115
f 98 115 114
f 99 100 116
f 99 116 115
f 100 101 117
f 100 117 116
f 101 102 118
f 101 118 117
f 102 103 119
f 102 119 118
f 103 104 120
f 103 120 119
f 104 105 121
f 104 121 120
f 105 106 122
f 105 122 121
f 106 107 123
f 106 123 122
f 107 108 124
f 107 124 123
f 108 109 125
f 108 125 124
f 109 110 126
f 109 126 125
f 110 111 127
f 110 127 126
f 111 112 128
f 111 128 127
f 112 113 129
f 112 129 128
f 113 98 114
f 113 114 129
f 114 115 131
f 114 131 130
f 115 116 132
f 115 132 131
f 116 117 133
f 116 133 132
f 117 118 134
f 117 134 133
f 118 119 135
f 118 135 134
f 119 120 136
f 119 136 135
f 120 121 137
f 120 137 136
f 121 122 138
f 121 138 137
f 122 123 139
f 122 139 138
f 123 124 140
f 123 140 139
f 124 125 141
f 124 141 140
f 125 126 142
f 125 142 141
f 126 127 143
f 126 143 142
f 127 128 144
f 127 144 143
f 128 129 145
f 128 145 144
f 129 114 130
f 129 130 145
f 130 131 147
f 130 147 146
f 131 132 148
f 131 148 147
f 132 133 149
f 132 149 148
f 133 134 150
f 133 150 149
f 134 135 151
f 134 151 150
f 135 136 152
f 135 152 151
f 136 137 153
f 136 153 152
f 137 138 154
f 137 154 153
f 138 139 155
f 138 155 154
f 139 140 156
f 139 156 155
f 140 141 157
f 140 157 156
f 141 142 158
f 141 158 157
f 142 143 159
f 142 159 158
f 143 144 160
f 143 160 159
f 144 145 161
f 144 161 160
f 145 130 146
f 145 146 161
f 146 147 163
f 146 163 162
f 147 148 164
f 147 164 163
f 148 149 165
f 148 165 164
f 149 150 166
f 149 166 165
f 150 151 167
f 150 167 166
f 151 152 168
f 151 168 167
f 152 153 169
f 152 169 168
f 153 154 170
f 153 170 169
f 154 155 171
f 154 171 170
f 155 156 172
f 155 172 171
f 156 157 173
f 156 173 172
f 157 158 174
f 157 174 173
f 158 159 175
f 158 175 174
f 159 160 176
f 159 176 175
f 160 161 177
f 160 177 176
f 161 146 162
f 161 162 177
f 162 163 179
f 162 179 178
f 163 164 180
f 163 180 179
f 164 165 181
f 164 181 180
f 165 166 182
f 165 182 181
f 166 167 183
f 166 183 182
f 167 168 184
f 167 184 183
f 168 169 185
f 168 185 184
f 169 170 186
f 169 186 185
f 170 171 187
f 170 187 186
f 171 172 188
f 171 188 187
f 172 173 189
f 172 189 188
f 173 174 190
f 173 190 189
f 174 175 191
f 174 191 190
f 175 176 192
f 175 192 191
f 176 177 193
f 176 193 192
f 177 162 178
f 177 178 193
f 178 179 195
f 178 195 194
f 179 180 196
f 179 196 195
f 180 181 197
f 180 197 196
f 181 182 198
f 181 198 197
f 182 183 199
f 182 199 198
f 183 184 200
f 183 200 199
f 184 185 201
f 184 201 200
f 185 186 202
f 185 202 201
f 186 187 203
f 186 203 202
f 187 188 204
f 187 204 203
f 188 189 205
f 188 205 204
f 189 190 206
f 189 206 205
f 190 191 207
f 190 207 206
f 191 192 208
f 191 208 207
f 192 193 209
f 192 209 208
f 193 178 194
f 193 194 209
f 194 195 211
f 194 211 210
f 195 196 212
f 195 212 211
f 196 197 213
f 196 213 212
f 197 198 214
f 197 214 213
f 198 199 215
f 198 215 214
f 199 200 216
f 199 216 215
f 200 201 217
f 200 217 216
f 201 202 218
f 201 218 217
f 202 203 219
f 202 219 218
f 203 204 220
f 203 220 219
f 204 205 221
f 204 221 220
f 205 206 222
f 205 222 221
f 206 207 223
f 206 223 222
f 207 208 224
f 207 224 223
f 208 209 225
f 208 225 224
f 209 194 210
f 209 210 225
f 210 211 227
f 210 227 226
f 211 212 228
f 211 228 227
f 212 213 229
f 212 229 228
f 213 214 230
f 213 230 229
f 214 215 231
f 214 231 230
f 215 216 232
f 215 232 231
f 216 217 233
f 216 233 232
f 217 218 234
f 217 234 233
f 218 219 235
f 218 235 234
f 219 220 236
f 219 236 235
f 220 221 237
f 220 237 236
f 221 222 238
f 221 238 237
f 222 223 239
f 222 239 238
f 223 224 240
f 223 240 239
f 224 225 241
f 224 241 240
f 225 210 226
f 225 226 241
f 242 226 227
f 242 227 228
f 242 228 229
f 242 229 230
f 242 230 231
f 242 231 232
f 242 232 233
f 242 233 234
f 242 234 235
f 242 235 236
f 242 236 237
f 242 237 238
f 242 238 239
f 242 239 240
f 242 240 241
f 242 241 226

o SphereMid
v 0.000000 0.600000 0.000000
v 0.117054 0.588471 0.000000
v 0.108144 0.588471 0.044795
v 0.082770 0.588471 0.082770
v 0.044795 0.588471 0.108144
v 0.000000 0.588471 0.117054
v -0.044795 0.588471 0.108144
v -0.082770 0.588471 0.082770
v -0.108144 0.588471 0.044795
v -0.117054 0.588471 0.000000
v -0.108144 0.588471 -0.044795
v -0.082770 0.588471 -0.082770
v -0.044795 0.588471 -0.108144
v -0.000000 0.588471 -0.117054
v 0.044795 0.588471 -0.108144
v 0.082770 0.588471 -0.082770
v 0.108144 0.588471 -0.044795
v 0.229610 0.554328 0.000000
v 0.212132 0.554328 0.087868
v 0.162359 0.554328 0.162359
v 0.087868 0.554328 0.212132
v 0.000000 0.554328 0.229610
v -0.087868 0.554328 0.212132
v -0.162359 0.554328 0.162359
v -0.212132 0.554328 0.087868
v -0.229610 0.554328 0.000000
v -0.212132 0.554328 -0.087868
v -0.162359 0.554328 -0.162359
v -0.087868 0.554328 -0.212132
v -0.000000 0.554328 -0.229610
v 0.087868 0.554328 -0.212132
v 0.162359 0.554328 -0.162359
v 0.212132 0.554328 -0.087868
v 0.333342 0.498882 0.000000
v 0.307968 0.498882 0.127565
v 0.235708 0.498882 0.235708
v 0.127565 0.498882 0.307968
v 0.000000 0.498882 0.333342
v -0.127565 0.498882 0.307968
v -0.235708 0.498882 0.235708
v -0.307968 0.498882 0.127565
v -0.333342 0.498882 0.000000
v -0.307968 0.498882 -0.127565
v -0.235708 0.498882 -0.235708
v -0.127565 0.498882 -0.307968
v -0.000000 0.498882 -0.333342
v 0.127565 0.498882 -0.307968
v 0.235708 0.498882 -0.235708
v 0.307968 0.498882 -0.127565
v 0.424264 0.424264 0.000000
v 0.391969 0.424264 0.162359
v 0.300000 0.424264 0.300000
v 0.162359 0.424264 0.391969
v 0.000000 0.424264 0.424264
v -0.162359 0.424264 0.391969
v -0.300000 0.424264 0.300000
v -0.391969 0.424264 0.162359
v -0.424264 0.424264 0.000000
v -0.391969 0.424264 -0.162359
v -0.300000 0.424264 -0.300000
v -0.162359 0.424264 -0.391969
v -0.000000 0.424264 -0.424264
v 0.162359 0.424264 -0.391969
v 0.300000 0.424264 -0.300000
v 0.391969 0.424264 -0.162359
v 0.498882 0.333342 0.000000
v 0.460907 0.333342 0.190914
v 0.352763 0.333342 0.352763
v 0.190914 0.333342 0.460907
v 0.000000 0.333342 0.498882
v -0.190914 0.333342 0.460907
v -0.352763 0.333342 0.352763
v -0.460907 0.333342 0.190914
v -0.498882 0.333342 0.000000
v -0.460907 0.333342 -0.190914
v -0.352763 0.333342 -0.352763
v -0.190914 0.333342 -0.460907
v -0.000000 0.333342 -0.498882
v 0.190914 0.333342 -0.460907
v 0.352763 0.333342 -0.352763
v 0.460907 0.333342 -0.190914
v 0.554328 0.229610 0.000000
v 0.512132 0.229610 0.212132
v 0.391969 0.229610 0.391969
v 0.212132 0.229610 0.512132
v 0.000000 0.229610 0.554328
v -0.212132 0.229610 0.512132
v -0.391969 0.229610 0.391969
v -0.512132 0.229610 0.212132
v -0.554328 0.229610 0.000000
v -0.512132 0.229610 -0.212132
v -0.391969 0.229610 -0.391969
v -0.212132 0.229610 -0.512132
v -0.000000 0.229610 -0.554328
v 0.212132 0.229610 -0.512132
v 0.391969 0.229610 -0.391969
v 0.512132 0.229610 -0.212132
v 0.588471 0.117054 0.000000
v 0.543676 0.117054 0.225198
v 0.416112 0.117054 0.416112
v 0.225198 0.117054 0.543676
v 0.000000 0.117054 0.588471
v -0.225198 0.117054 0.543676
v -0.416112 0.117054 0.416112
v -0.543676 0.117054 0.225198
v -0.588471 0.117054 0.000000
v -0.543676 0.117054 -0.225198
v -0.416112 0.117054 -0.416112
v -0.225198 0.117054 -0.543676
v -0.000000 0.117054 -0.588471
v 0.225198 0.117054 -0.543676
v 0.416112 0.117054 -0.416112
v 0.543676 0.117054 -0.225198
v 0.600000 0.000000 0.000000
v 0.554328 0.000000 0.229610
v 0.424264 0.000000 0.424264
v 0.229610 0.000000 0.554328
v 0.000000 0.000000 0.600000
v -0.229610 0.000000 0.554328
v -0.424264 0.000000 0.424264
v -0.554328 0.000000 0.229610
v -0.600000 0.000000 0.000000
v -0.554328 0.000000 -0.229610
v -0.424264 0.000000 -0.424264
v -0.229610 0.000000 -0.554328
v -0.000000 0.000000 -0.600000
v 0.229610 0.000000 -0.554328
v 0.424264 0.000000 -0.424264
v 0.554328 0.000000 -0.229610
v 0.588471 -0.117054 0.000000
v 0.543676 -0.117054 0.225198
v 0.416112 -0.117054 0.416112
v 0.225198 -0.117054 0.543676
v 0.000000 -0.117054 0.588471
v -0.225198 -0.117054 0.543676
v -0.416112 -0.117054 0.416112
v -0.543676 -0.117054 0.225198
v -0.588471 -0.117054 0.000000
v -0.543676 -0.117054 -0.225198
v -0.416112 -0.117054 -0.416112
v -0.225198 -0.117054 -0.543676
v -0.000000 -0.117054 -0.588471
v 0.225198 -0.117054 -0.543676
v 0.416112 -0.117054 -0.416112
v 0.543676 -0.117054 -0.225198
v 0.554328 -0.229610 0.000000
v 0.512132 -0.229610 0.212132
v 0.391969 -0.229610 0.391969
v 0.212132 -0.229610 0.512132
v 0.000000 -0.229610 0.554328
v -0.212132 -0.229610 0.512132
v -0.391969 -0.229610 0.391969
v -0.512132 -0.229610 0.212132
v -0.554328 -0.229610 0.000000
v -0.512132 -0.229610 -0.212132
v -0.391969 -0.229610 -0.391969
v -0.212132 -0.229610 -0.512132
v -0.000000 -0.229610 -0.554328
v 0.212132 -0.229610 -0.512132
v 0.391969 -0.229610 -0.391969
v 0.512132 -0.229610 -0.212132
v 0.498882 -0.333342 0.000000
v 0.460907 -0.333342 0.190914
v 0.352763 -0.333342 0.352763
v 0.190914 -0.333342 0.460907
v 0.000000 -0.333342 0.498882
v -0.190914 -0.333342 0.460907
v -0.352763 -0.333342 0.352763
v -0.460907 -0.333342 0.190914
v -0.498882 -0.333342 0.000000
v -0.460907 -0.333342 -0.190914
v -0.352763 -0.333342 -0.352763
v -0.190914 -0.333342 -0.460907
v -0.000000 -0.333342 -0.498882
v 0.190914 -0.333342 -0.460907
v 0.352763 -0.333342 -0.352763
v 0.460907 -0.333342 -0.190914
v 0.424264 -0.424264 0.000000
v 0.391969 -0.424264 0.162359
v 0.300000 -0.424264 0.300000
v 0.162359 -0.424264 0.391969
v 0.000000 -0.424264 0.424264
v -0.162359 -0.424264 0.391969
v -0.300000 -0.424264 0.300000
v -0.391969 -0.424264 0.162359
v -0.424264 -0.424264 0.000000
v -0.391969 -0.424264 -0.162359
v -0.300000 -0.424264 -0.300000
v -0.162359 -0.424264 -0.391969
v -0.000000 -0.424264 -0.424264
v 0.162359 -0.424264 -0.391969
v 0.300000 -0.424264 -0.300000
v 0.391969 -0.424264 -0.162359
v 0.333342 -0.498882 0.000000
v 0.307968 -0.498882 0.127565
v 0.235708 -0.498882 0.235708
v 0.127565 -0.498882 0.307968
v 0.000000 -0.498882 0.333342
v -0.127565 -0.498882 0.307968
v -0.235708 -0.498882 0.235708
v -0.307968 -0.498882 0.127565
v -0.333342 -0.498882 0.000000
v -0.307968 -0.498882 -0.127565
v -0.235708 -0.498882 -0.235708
v -0.127565 -0.498882 -0.307968
v -0.000000 -0.498882 -0.333342
v 0.127565 -0.498882 -0.307968
v 0.235708 -0.498882 -0.235708
v 0.307968 -0.498882 -0.127565
v 0.229610 -0.554328 0.000000
v 0.212132 -0.554328 0.087868
v 0.162359 -0.554328 0.162359
v 0.087868 -0.554328 0.212132
v 0.000000 -0.554328 0.229610
v -0.087868 -0.554328 0.212132
v -0.162359 -0.554328 0.162359
v -0.212132 -0.554328 0.087868
v -0.229610 -0.554328 0.000000
v -0.212132 -0.554328 -0.087868
v -0.162359 -0.554328 -0.162359
v -0.087868 -0.554328 -0.212132
v -0.000000 -0.554328 -0.229610
v 0.087868 -0.554328 -0.212132
v 0.162359 -0.554328 -0.162359
v 0.212132 -0.554328 -0.087868
v 0.117054 -0.588471 0.000000
v 0.108144 -0.588471 0.044795
v 0.082770 -0.588471 0.082770
v 0.044795 -0.588471 0.108144
v 0.000000 -0.588471 0.117054
v -0.044795 -0.588471 0.108144
v -0.082770 -0.588471 0.082770
v -0.108144 -0.588471 0.044795
v -0.117054 -0.588471 0.000000
v -0.108144 -0.588471 -0.044795
v -0.082770 -0.588471 -0.082770
v -0.044795 -0.588471 -0.108144
v -0.000000 -0.588471 -0.117054
v 0.044795 -0.588471 -0.108144
v 0.082770 -0.588471 -0.082770
v 0.108144 -0.588471 -0.044795
v 0.000000 -0.600000 0.000000
f 243 245 244
f 243 246 245
f 243 247 246
f 243 248 247
f 243 249 248
f 243 250 249
f 243 251 250
f 243 252 251
f 243 253 252
f 243 254 253
f 243 255 254
f 243 256 255
f 243 257 256
f 243 258 257
f 243 259 258
f 243 244 259
f 244 245 261
f 244 261 260
f 245 246 262
f 245 262 261
f 246 247 263
f 246 263 262
f 247 248 264
f 247 264 263
f 248 249 265
f 248 265 264
f 249 250 266
f 249 266 265
f 250 251 267
f 250 267 266
f 251 252 268
f 251 268 267
f 252 253 269
f 252 269 268
f 253 254 270
f 253 270 269
f 254 255 271
f 254 271 270
f 255 256 272
f 255 272 271
f 256 257 273
f 256 273 272
f 257 258 274
f 257 274 273
f 258 259 275
f 258 275 274
f 259 244 260
f 259 260 275
f 260 261 277
f 260 277 276
f 261 262 278
f 261 278 277
f 262 263 279
f 262 279 278
f 263 264 280
f 263 280 279
f 264 265 281
f 264 281 280
f 265 266 282
f 265 282 281
f 266 267 283
f 266 283 282
f 267 268 284
f 267 284 283
f 268 269 285
f 268 285 284
f 269 270 286
f 269 286 285
f 270 271 287
f 270 287 286
f 271 272 288
f 271 288 287
f 272 273 289
f 272 289 288
f 273 274 290
f 273 290 289
f 274 275 291
f 274 291 290
f 275 260 276
f 275 276 291
f 276 277 293
f 276 293 292
f 277 278 294
f 277 294 293
f 278 279 295
f 278 295 294
f 279 280 296
f 279 296 295
f 280 281 297
f 280 297 296
f 281 282 298
f 281 298 297
f 282 283 299
f 282 299 298
f 283 284 300
f 283 300 299
f 284 285 301
f 284 301 300
f 285 286 302
f 285 302 301
f 286 287 303
f 286 303 302
f 287 288 304
f 287 304 303
f 288 289 305
f 288 305 304
f 289 290 306
f 289 306 305
f 290 291 307
f 290 307 306
f 291 276 292
f 291 292 307
f 292 293 309
f 292 309 308
f 293 294 310
f 293 310 309
f 294 295 311
f 294 311 310
f 295 296 312
f 295 312 311
f 296 297 313
f 296 313 312
f 297 298 314
f 297 314 313
f 298 299 315
f 298 315 314
f 299 300 316
f 299 316 315
f 300 301 317
f 300 317 316
f 301 302 318
f 301 318 317
f 302 303 319
f 302 319 318
f 303 304 320
f 303 320 319
f 304 305 321
f 304 321 320
f 305 306 322
f 305 322 321
f 306 307 323
f 306 323 322
f 307 292 308
f 307 308 323
f 308 309 325
f 308 325 324
f 309 310 326
f 309 326 325
f 310 311 327
f 310 327 326
f 311 312 328
f 311 328 327
f 312 313 329
f 312 329 328
f 313 314 330
f 313 330 329
f 314 315 331
f 314 331 330
f 315 316 332
f 315 332 331
f 316 317 333
f 316 333 332
f 317 318 334
f 317 334 333
f 318 319 335
f 318 335 334
f 319 320 336
f 319 336 335
f 320 321 337
f 320 337 336
f 321 322 338
f 321 338 337
f 322 323 339
f 322 339 338
f 323 308 324
f 323 324 339
f 324 325 341
f 324 341 340
f 325 326 342
f 325 342 341
f 326 327 343
f 326 343 342
f 327 328 344
f 327 344 343
f 328 329 345
f 328 345 344
f 329 330 346
f 329 346 345
f 330 331 347
f 330 347 346
f 331 332 348
f 331 348 347
f 332 333 349
f 332 349 348
f 333 334 350
f 333 350 349
f 334 335 351
f 334 351 350
f 335 336 352
f 335 352 351
f 336 337 353
f 336 353 352
f 337 338 354
f 337 354 353
f 338 339 355
f 338 355 354
f 339 324 340
f 339 340 355
f 340 341 357
f 340 357 356
f 341 342 358
f 341 358 357
f 342 343 359
f 342 359 358
f 343 344 360
f 343 360 359
f 344 345 361
f 344 361 360
f 345 346 362
f 345 362 361
f 346 347 363
f 346 363 362
f 347 348 364
f 347 364 363
f 348 349 365
f 348 365 364
f 349 350 366
f 349 366 365
f 350 351 367
f 350 367 366
f 351 352 368
f 351 368 367
f 352 353 369
f 352 369 368
f 353 354 370
f 353 370 369
f 354 355 371
f 354 371 370
f 355 340 356
f 355 356 371
f 356 357 373
f 356 373 372
f 357 358 374
f 357 374 373
f 358 359 375
f 358 375 374
f 359 360 376
f 359 376 375
f 360 361 377
f 360 377 376
f 361 362 378
f 361 378 377
f 362 363 379
f 362 379 378
f 363 364 380
f 363 380 379
f 364 365 381
f 364 381 380
f 365 366 382
f 365 382 381
f 366 367 383
f 366 383 382
f 367 368 384
f 367 384 383
f 368 369 385
f 368 385 384
f 369 370 386
f 369 386 385
f 370 371 387
f 370 387 386
f 371 356 372
f 371 372 387
f 372 373 389
f 372 389 388
f 373 374 390
f 373 390 389
f 374 375 391
f 374 391 390
f 375 376 392
f 375 392 391
f 376 377 393
f 376 393 392
f 377 378 394
f 377 394 393
f 378 379 395
f 378 395 394
f 379 380 396
f 379 396 395
f 380 381 397
f 380 397 396
f 381 382 398
f 381 398 397
f 382 383 399
f 382 399 398
f 383 384 400
f 383 400 399
f 384 385 401
f 384 401 400
f 385 386 402
f 385 402 401
f 386 387 403
f 386 403 402
f 387 372 388
f 387 388 403
f 388 389 405
f 388 405 404
f 389 390 406
f 389 406 405
f 390 391 407
f 390 407 406
f 391 392 408
f 391 408 407
f 392 393 409
f 392 409 408
f 393 394 410
f 393 410 409
f 394 395 411
f 394 411 410
f 395 396 412
f 395 412 411
f 396 397 413
f 396 413 412
f 397 398 414
f 397 414 413
f 398 399 415
f 398 415 414
f 399 400 416
f 399 416 415
f 400 401 417
f 400 417 416
f 401 402 418
f 401 418 417
f 402 403 419
f 402 419 418
f 403 388 404
f 403 404 419
f 404 405 421
f 404 421 420
f 405 406 422
f 405 422 421
f 406 407 423
f 406 423 422
f 407 408 424
f 407 424 423
f 408 409 425
f 408 425 424
f 409 410 426
f 409 426 425
f 410 411 427
f 410 427 426
f 411 412 428
f 411 428 427
f 412 413 429
f 412 429 428
f 413 414 430
f 413 430 429
f 414 415 431
f 414 431 430
f 415 416 432
f 415 432 431
f 416 417 433
f 416 433 432
f 417 418 434
f 417 434 433
f 418 419 435
f 418 435 434
f 419 404 420
f 419 420 435
f 420 421 437
f 420 437 436
f 421 422 438
f 421 438 437
f 422 423 439
f 422 439 438
f 423 424 440
f 423 440 439
f 424 425 441
f 424 441 440
f 425 426 442
f 425 442 441
f 426 427 443
f 426 443 442
f 427 428 444
f 427 444 443
f 428 429 445
f 428 445 444
f 429 430 446
f 429 446 445
f 430 431 447
f 430 447 446
f 431 432 448
f 431 448 447
f 432 433 449
f 432 449 448
f 433 434 450
f 433 450 449
f 434 435 451
f 434 451 450
f 435 420 436
f 435 436 451
f 436 437 453
f 436 453 452
f 437 438 454
f 437 454 453
f 438 439 455
f 438 455 454
f 439 440 456
f 439 456 455
f 440 441 457
f 440 457 456
f 441 442 458
f 441 458 457
f 442 443 459
f 442 459 458
f 443 444 460
f 443 460 459
f 444 445 461
f 444 461 460
f 445 446 462
f 445 462 461
f 446 447 463
f 446 463 462
f 447 448 464
f 447 464 463
f 448 449 465
f 448 465 464
f 449 450 466
f 449 466 465
f 450 451 467
f 450 467 466
f 451 436 452
f 451 452 467
f 452 453 469
f 452 469 468
f 453 454 470
f 453 470 469
f 454 455 471
f 454 471 470
f 455 456 472
f 455 472 471
f 456 457 473
f 456 473 472
f 457 458 474
f 457 474 473
f 458 459 475
f 458 475 474
f 459 460 476
f 459 476 475
f 460 461 477
f 460 477 476
f 461 462 478
f 461 478 477
f 462 463 479
f 462 479 478
f 463 464 480
f 463 480 479
f 464 465 481
f 464 481 480
f 465 466 482
f 465 482 481
f 466 467 483
f 466 483 482
f 467 452 468
f 467 468 483
f 484 468 469
f 484 469 470
f 484 470 471
f 484 471 472
f 484 472 473
f 484 473 474
f 484 474 475
f 484 475 476
f 484 476 477
f 484 477 478
f 484 478 479
f 484 479 480
f 484 480 481
f 484 481 482
f 484 482 483
f 484 483 468

o SphereInner
v 0.000000 0.300000 0.000000
v 0.058527 0.294236 0.000000
v 0.054072 0.294236 0.022397
v 0.041385 0.294236 0.041385
v 0.022397 0.294236 0.054072
v 0.000000 0.294236 0.058527
v -0.022397 0.294236 0.054072
v -0.041385 0.294236 0.041385
v -0.054072 0.294236 0.022397
v -0.058527 0.294236 0.000000
v -0.054072 0.294236 -0.022397
v -0.041385 0.294236 -0.041385
v -0.022397 0.294236 -0.054072
v -0.000000 0.294236 -0.058527
v 0.022397 0.294236 -0.054072
v 0.041385 0.294236 -0.041385
v 0.054072 0.294236 -0.022397
v 0.114805 0.277164 0.000000
v 0.106066 0.277164 0.043934
v 0.081179 0.277164 0.081179
v 0.043934 0.277164 0.106066
v 0.000000 0.277164 0.114805
v -0.043934 0.277164 0.106066
v -0.081179 0.277164 0.081179
v -0.106066 0.277164 0.043934
v -0.114805 0.277164 0.000000
v -0.106066 0.277164 -0.043934
v -0.081179 0.277164 -0.081179
v -0.043934 0.277164 -0.106066
v -0.000000 0.277164 -0.114805
v 0.043934 0.277164 -0.106066
v 0.081179 0.277164 -0.081179
v 0.106066 0.277164 -0.043934
v 0.166671 0.249441 0.000000
v 0.153984 0.249441 0.063782
v 0.117854 0.249441 0.117854
v 0.063782 0.249441 0.153984
v 0.000000 0.249441 0.166671
v -0.063782 0.249441 0.153984
v -0.117854 0.249441 0.117854
v -0.153984 0.249441 0.063782
v -0.166671 0.249441 0.000000
v -0.153984 0.249441 -0.063782
v -0.117854 0.249441 -0.117854
v -0.063782 0.249441 -0.153984
v -0.000000 0.249441 -0.166671
v 0.063782 0.249441 -0.153984
v 0.117854 0.249441 -0.117854
v 0.153984 0.249441 -0.063782
v 0.212132 0.212132 0.000000
v 0.195984 0.212132 0.081179
v 0.150000 0.212132 0.150000
v 0.081179 0.212132 0.195984
v 0.000000 0.212132 0.212132
v -0.081179 0.212132 0.195984
v -0.150000 0.212132 0.150000
v -0.195984 0.212132 0.081179
v -0.212132 0.212132 0.000000
v -0.195984 0.212132 -0.081179
v -0.150000 0.212132 -0.150000
v -0.081179 0.212132 -0.195984
v -0.000000 0.212132 -0.212132
v 0.081179 0.212132 -0.195984
v 0.150000 0.212132 -0.150000
v 0.195984 0.212132 -0.081179
v 0.249441 0.166671 0.000000
v 0.230453 0.166671 0.095457
v 0.176381 0.166671 0.176381
v 0.095457 0.166671 0.230453
v 0.000000 0.166671 0.249441
v -0.095457 0.166671 0.230453
v -0.176381 0.166671 0.176381
v -0.230453 0.166671 0.095457
v -0.249441 0.166671 0.000000
v -0.230453 0.166671 -0.095457
v -0.176381 0.166671 -0.176381
v -0.095457 0.166671 -0.230453
v -0.000000 0.166671 -0.249441
v 0.095457 0.166671 -0.230453
v 0.176381 0.166671 -0.176381
v 0.230453 0.166671 -0.095457
v 0.277164 0.114805 0.000000
v 0.256066 0.114805 0.106066
v 0.195984 0.114805 0.195984
v 0.106066 0.114805 0.256066
v 0.000000 0.114805 0.277164
v -0.106066 0.114805 0.256066
v -0.195984 0.114805 0.195984
v -0.256066 0.114805 0.106066
v -0.277164 0.114805 0.000000
v -0.256066 0.114805 -0.106066
v -0.195984 0.114805 -0.195984
v -0.106066 0.114805 -0.256066
v -0.000000 0.114805 -0.277164
v 0.106066 0.114805 -0.256066
v 0.195984 0.114805 -0.195984
v 0.256066 0.114805 -0.106066
v 0.294236 0.058527 0.000000
v 0.271838 0.058527 0.112599
v 0.208056 0.058527 0.208056
v 0.112599 0.058527 0.271838
v 0.000000 0.058527 0.294236
v -0.112599 0.058527 0.271838
v -0.208056 0.058527 0.208056
v -0.271838 0.058527 0.112599
v -0.294236 0.058527 0.000000
v -0.271838 0.058527 -0.112599
v -0.208056 0.058527 -0.208056
v -0.112599 0.058527 -0.271838
v -0.000000 0.058527 -0.294236
v 0.112599 0.058527 -0.271838
v 0.208056 0.058527 -0.208056
v 0.271838 0.058527 -0.112599
v 0.300000 0.000000 0.000000
v 0.277164 0.000000 0.114805
v 0.212132 0.000000 0.212132
v 0.114805 0.000000 0.277164
v 0.000000 0.000000 0.300000
v -0.114805 0.000000 0.277164
v -0.212132 0.000000 0.212132
v -0.277164 0.000000 0.114805
v -0.300000 0.000000 0.000000
v -0.277164 0.000000 -0.114805
v -0.212132 0.000000 -0.212132
v -0.114805 0.000000 -0.277164
v -0.000000 0.000000 -0.300000
v 0.114805 0.000000 -0.277164
v 0.212132 0.000000 -0.212132
v 0.277164 0.000000 -0.114805
v 0.294236 -0.058527 0.000000
v 0.271838 -0.058527 0.112599
v 0.208056 -0.058527 0.208056
v 0.112599 -0.058527 0.271838
v 0.000000 -0.058527 0.294236
v -0.112599 -0.058527 0.271838
v -0.208056 -0.058527 0.208056
v -0.271838 -0.058527 0.112599
v -0.294236 -0.058527 0.000000
v -0.271838 -0.058527 -0.112599
v -0.208056 -0.058527 -0.208056
v -0.112599 -0.058527 -0.271838
v -0.000000 -0.058527 -0.294236
v 0.112599 -0.058527 -0.271838
v 0.208056 -0.058527 -0.208056
v 0.271838 -0.058527 -0.112599
v 0.277164 -0.114805 0.000000
v 0.256066 -0.114805 0.106066
v 0.195984 -0.114805 0.195984
v 0.106066 -0.114805 0.256066
v 0.000000 -0.114805 0.277164
v -0.106066 -0.114805 0.256066
v -0.195984 -0.114805 0.195984
v -0.256066 -0.114805 0.106066
v -0.277164 -0.114805 0.000000
v -0.256066 -0.114805 -0.106066
v -0.195984 -0.114805 -0.195984
v -0.106066 -0.114805 -0.256066
v -0.000000 -0.114805 -0.277164
v 0.106066 -0.114805 -0.256066
v 0.195984 -0.114805 -0.195984
v 0.256066 -0.114805 -0.106066
v 0.249441 -0.166671 0.000000
v 0.230453 -0.166671 0.095457
v 0.176381 -0.166671 0.176381
v 0.095457 -0.166671 0.230453
v 0.000000 -0.166671 0.249441
v -0.095457 -0.166671 0.230453
v -0.176381 -0.166671 0.176381
v -0.230453 -0.166671 0.095457
v -0.249441 -0.166671 0.000000
v -0.230453 -0.166671 -0.095457
v -0.176381 -0.166671 -0.176381
v -0.095457 -0.166671 -0.230453
v -0.000000 -0.166671 -0.249441
v 0.095457 -0.166671 -0.230453
v 0.176381 -0.166671 -0.176381
v 0.230453 -0.166671 -0.095457
v 0.212132 -0.212132 0.000000
v 0.195984 -0.212132 0.081179
v 0.150000 -0.212132 0.150000
v 0.081179 -0.212132 0.195984
v 0.000000 -0.212132 0.212132
v -0.081179 -0.212132 0.195984
v -0.150000 -0.212132 0.150000
v -0.195984 -0.212132 0.081179
v -0.212132 -0.212132 0.000000
v -0.195984 -0.212132 -0.081179
v -0.150000 -0.212132 -0.150000
v -0.081179 -0.212132 -0.195984
v -0.000000 -0.212132 -0.212132
v 0.081179 -0.212132 -0.195984
v 0.150000 -0.212132 -0.150000
v 0.195984 -0.212132 -0.081179
v 0.166671 -0.249441 0.000000
v 0.153984 -0.249441 0.063782
v 0.117854 -0.249441 0.117854
v 0.063782 -0.249441 0.153984
v 0.000000 -0.249441 0.166671
v -0.063782 -0.249441 0.153984
v -0.117854 -0.249441 0.117854
v -0.153984 -0.249441 0.063782
v -0.166671 -0.249441 0.000000
v -0.153984 -0.249441 -0.063782
v -0.117854 -0.249441 -0.117854
v -0.063782 -0.249441 -0.153984
v -0.000000 -0.249441 -0.166671
v 0.063782 -0.249441 -0.153984
v 0.117854 -0.249441 -0.117854
v 0.153984 -0.249441 -0.063782
v 0.114805 -0.277164 0.000000
v 0.106066 -0.277164 0.043934
v 0.081179 -0.277164 0.081179
v 0.043934 -0.277164 0.106066
v 0.000000 -0.277164 0.114805
v -0.043934 -0.277164 0.106066
v -0.081179 -0.277164 0.081179
v -0.106066 -0.277164 0.043934
v -0.114805 -0.277164 0.000000
v -0.106066 -0.277164 -0.043934
v -0.081179 -0.277164 -0.081179
v -0.043934 -0.277164 -0.106066
v -0.000000 -0.277164 -0.114805
v 0.043934 -0.277164 -0.106066
v 0.081179 -0.277164 -0.081179
v 0.106066 -0.277164 -0.043934
v 0.058527 -0.294236 0.000000
v 0.054072 -0.294236 0.022397
v 0.041385 -0.294236 0.041385
v 0.022397 -0.294236 0.054072
v 0.000000 -0.294236 0.058527
v -0.022397 -0.294236 0.054072
v -0.041385 -0.294236 0.041385
v -0.054072 -0.294236 0.022397
v -0.058527 -0.294236 0.000000
v -0.054072 -0.294236 -0.022397
v -0.041385 -0.294236 -0.041385
v -0.022397 -0.294236 -0.054072
v -0.000000 -0.294236 -0.058527
v 0.022397 -0.294236 -0.054072
v 0.041385 -0.294236 -0.041385
v 0.054072 -0.294236 -0.022397
v 0.000000 -0.300000 0.000000
f 485 487 486
f 485 488 487
f 485 489 488
f 485 490 489
f 485 491 490
f 485 492 491
f 485 493 492
f 485 494 493
f 485 495 494
f 485 496 495
f 485 497 496
f 485 498 497
f 485 499 498
f 485 500 499
f 485 501 500
f 485 486 501
f 486 487 503
f 486 503 502
f 487 488 504
f 487 504 503
f 488 489 505
f 488 505 504
f 489 490 506
f 489 506 505
f 490 491 507
f 490 507 506
f 491 492 508
f 491 508 507
f 492 493 509
f 492 509 508
f 493 494 510
f 493 510 509
f 494 495 511
f 494 511 510
f 495 496 512
f 495 512 511
f 496 497 513
f 496 513 512
f 497 498 514
f 497 514 513
f 498 499 515
f 498 515 514
f 499 500 516
f 499 516 515
f 500 501 517
f 500 517 516
f 501 486 502
f 501 502 517
f 502 503 519
f 502 519 518
f 503 504 520
f 503 520 519
f 504 505 521
f 504 521 520
f 505 506 522
f 505 522 521
f 506 507 523
f 506 523 522
f 507 508 524
f 507 524 523
f 508 509 525
f 508 525 524
f 509 510 526
f 509 526 525
f 510 511 527
f 510 527 526
f 511 512 528
f 511 528 527
f 512 513 529
f 512 529 528
f 513 514 530
f 513 530 529
f 514 515 531
f 514 531 530
f 515 516 532
f 515 532 531
f 516 517 533
f 516 533 532
f 517 502 518
f 517 518 533
f 518 519 535
f 518 535 534
f 519 520 536
f 519 536 535
f 520 521 537
f 520 537 536
f 521 522 538
f 521 538 537
f 522 523 539
f 522 539 538
f 523 524 540
f 523 540 539
f 524 525 541
f 524 541 540
f 525 526 542
f 525 542 541
f 526 527 543
f 526 543 542
f 527 528 544
f 527 544 543
f 528 529 545
f 528 545 544
f 529 530 546
f 529 546 545
f 530 531 547
f 530 547 546
f 531 532 548
f 531 548 547
f 532 533 549
f 532 549 548
f 533 518 534
f 533 534 549
f 534 535 551
f 534 551 550
f 535 536 552
f 535 552 551
f 536 537 553
f 536 553 552
f 537 538 554
f 537 554 553
f 538 539 555
f 538 555 554
f 539 540 556
f 539 556 555
f 540 541 557
f 540 557 556
f 541 542 558
f 541 558 557
f 542 543 559
f 542 559 558
f 543 544 560
f 543 560 559
f 544 545 561
f 544 561 560
f 545 546 562
f 545 562 561
f 546 547 563
f 546 563 562
f 547 548 564
f 547 564 563
f 548 549 565
f 548 565 564
f 549 534 550
f 549 550 565
f 550 551 567
f 550 567 566
f 551 552 568
f 551 568 567
f 552 553 569
f 552 569 568
f 553 554 570
f 553 570 569
f 554 555 571
f 554 571 570
f 555 556 572
f 555 572 571
f 556 557 573
f 556 573 572
f 557 558 574
f 557 574 573
f 558 559 575
f 558 575 574
f 559 560 576
f 559 576 575
f 560 561 577
f 560 577 576
f 561 562 578
f 561 578 577
f 562 563 579
f 562 579 578
f 563 564 580
f 563 580 579
f 564 565 581
f 564 581 580
f 565 550 566
f 565 566 581
f 566 567 583
f 566 583 582
f 567 568 584
f 567 584 583
f 568 569 585
f 568 585 584
f 569 570 586
f 569 586 585
f 570 571 587
f 570 587 586
f 571 572 588
f 571 588 587
f 572 573 589
f 572 589 588
f 573 574 590
f 573 590 589
f 574 575 591
f 574 591 590
f 575 576 592
f 575 592 591
f 576 577 593
f 576 593 592
f 577 578 594
f 577 594 593
f 578 579 595
f 578 595 594
f 579 580 596
f 579 596 595
f 580 581 597
f 580 597 596
f 581 566 582
f 581 582 597
f 582 583 599
f 582 599 598
f 583 584 600
f 583 600 599
f 584 585 601
f 584 601 600
f 585 586 602
f 585 602 601
f 586 587 603
f 586 603 602
f 587 588 604
f 587 604 603
f 588 589 605
f 588 605 604
f 589 590 606
f 589 606 605
f 590 591 607
f 590 607 606
f 591 592 608
f 591 608 607
f 592 593 609
f 592 609 608
f 593 594 610
f 593 610 609
f 594 595 611
f 594 611 610
f 595 596 612
f 595 612 611
f 596 597 613
f 596 613 612
f 597 582 598
f 597 598 613
f 598 599 615
f 598 615 614
f 599 600 616
f 599 616 615
f 600 601 617
f 600 617 616
f 601 602 618
f 601 618 617
f 602 603 619
f 602 619 618
f 603 604 620
f 603 620 619
f 604 605 621
f 604 621 620
f 605 606 622
f 605 622 621
f 606 607 623
f 606 623 622
f 607 608 624
f 607 624 623
f 608 609 625
f 608 625 624
f 609 610 626
f 609 626 625
f 610 611 627
f 610 627 626
f 611 612 628
f 611 628 627
f 612 613 629
f 612 629 628
f 613 598 614
f 613 614 629
f 614 615 631
f 614 631 630
f 615 616 632
f 615 632 631
f 616 617 633
f 616 633 632
f 617 618 634
f 617 634 633
f 618 619 635
f 618 635 634
f 619 620 636
f 619 636 635
f 620 621 637
f 620 637 636
f 621 622 638
f 621 638 637
f 622 623 639
f 622 639 638
f 623 624 640
f 623 640 639
f 624 625 641
f 624 641 640
f 625 626 642
f 625 642 641
f 626 627 643
f 626 643 642
f 627 628 644
f 627 644 643
f 628 629 645
f 628 645 644
f 629 614 630
f 629 630 645
f 630 631 647
f 630 647 646
f 631 632 648
f 631 648 647
f 632 633 649
f 632 649 648
f 633 634 650
f 633 650 649
f 634 635 651
f 634 651 650
f 635 636 652
f 635 652 651
f 636 637 653
f 636 653 652
f 637 638 654
f 637 654 653
f 638 639 655
f 638 655 654
f 639 640 656
f 639 656 655
f 640 641 657
f 640 657 656
f 641 642 658
f 641 658 657
f 642 643 659
f 642 659 658
f 643 644 660
f 643 660 659
f 644 645 661
f 644 661 660
f 645 630 646
f 645 646 661
f 646 647 663
f 646 663 662
f 647 648 664
f 647 664 663
f 648 649 665
f 648 665 664
f 649 650 666
f 649 666 665
f 650 651 667
f 650 667 666
f 651 652 668
f 651 668 667
f 652 653 669
f 652 669 668
f 653 654 670
f 653 670 669
f 654 655 671
f 654 671 670
f 655 656 672
f 655 672 671
f 656 657 673
f 656 673 672
f 657 658 674
f 657 674 673
f 658 659 675
f 658 675 674
f 659 660 676
f 659 676 675
f 660 661 677
f 660 677 676
f 661 646 662
f 661 662 677
f 662 663 679
f 662 679 678
f 663 664 680
f 663 680 679
f 664 665 681
f 664 681 680
f 665 666 682
f 665 682 681
f 666 667 683
f 666 683 682
f 667 668 684
f 667 684 683
f 668 669 685
f 668 685 684
f 669 670 686
f 669 686 685
f 670 671 687
f 670 687 686
f 671 672 688
f 671 688 687
f 672 673 689
f 672 689 688
f 673 674 690
f 673 690 689
f 674 675 691
f 674 691 690
f 675 676 692
f 675 692 691
f 676 677 693
f 676 693 692
f 677 662 678
f 677 678 693
f 678 679 695
f 678 695 694
f 679 680 696
f 679 696 695
f 680 681 697
f 680 697 696
f 681 682 698
f 681 698 697
f 682 683 699
f 682 699 698
f 683 684 700
f 683 700 699
f 684 685 701
f 684 701 700
f 685 686 702
f 685 702 701
f 686 687 703
f 686 703 702
f 687 688 704
f 687 704 703
f 688 689 705
f 688 705 704
f 689 690 706
f 689 706 705
f 690 691 707
f 690 707 706
f 691 692 708
f 691 708 707
f 692 693 709
f 692 709 708
f 693 678 694
f 693 694 709
f 694 695 711
f 694 711 710
f 695 696 712
f 695 712 711
f 696 697 713
f 696 713 712
f 697 698 714
f 697 714 713
f 698 699 715
f 698 715 714
f 699 700 716
f 699 716 715
f 700 701 717
f 700 717 716
f 701 702 718
f 701 718 717
f 702 703 719
f 702 719 718
f 703 704 720
f 703 720 719
f 704 705 721
f 704 721 720
f 705 706 722
f 705 722 721
f 706 707 723
f 706 723 722
f 707 708 724
f 707 724 723
f 708 709 725
f 708 725 724
f 709 694 710
f 709 710 725
f 726 710 711
f 726 711 712
f 726 712 713
f 726 713 714
f 726 714 715
f 726 715 716
f 726 716 717
f 726 717 718
f 726 718 719
f 726 719 720
f 726 720 721
f 726 721 722
f 726 722 723
f 726 723 724
f 726 724 725
f 726 725 710
