# Blender 5.0.0
# www.blender.org
mtllib angled_planes.mtl
g p1
usemtl p1
v -1.000000 0.272412 -0.037819
v -1.000000 -0.272412 -1.962181
v 1.000000 0.272412 -0.037819
v 1.000000 -0.272412 -1.962181
s 0
f 3 4 2 1
# g p2
# usemtl p2
v -1.000000 -1.000000 1.000000
v -1.000000 0.272412 -0.037819
v 1.000000 -1.000000 1.000000
v 1.000000 0.272412 -0.037819
s 0
f 5 7 8 6
g light
usemtl light
v -0.500000 1.500000 0.500000
v 0.500000 1.500000 0.500000
v -0.500000 1.500000 -0.500000
v 0.500000 1.500000 -0.500000
s 0
f 11 12 10 9
